<svg width="79" height="61" viewBox="0 0 79 61" fill="none" xmlns="http://www.w3.org/2000/svg">
<path d="M13.6999 0.629998C20.9533 1.99 26.2799 4.54 29.6799 8.28C33.1933 12.02 34.9499 16.44 34.9499 21.54C34.9499 26.5267 32.4566 33.1 27.4699 41.26C22.4833 49.5333 17.8366 55.88 13.5299 60.3L4.85992 55.03C9.95992 47.21 13.0199 40.1833 14.0399 33.95L0.609922 24.77C0.609922 20.2367 1.79992 15.76 4.17992 11.34C6.67326 6.92 9.84659 3.35 13.6999 0.629998ZM57.03 0.629998C64.2833 1.99 69.61 4.54 73.01 8.28C76.5233 12.02 78.28 16.44 78.28 21.54C78.28 26.5267 75.7867 33.1 70.8 41.26C65.8133 49.5333 61.1667 55.88 56.86 60.3L48.19 55.03C53.29 47.21 56.35 40.1833 57.37 33.95L43.94 24.77C43.94 20.2367 45.13 15.76 47.51 11.34C50.0033 6.92 53.1767 3.35 57.03 0.629998Z" fill="#2563EB"/>
</svg>
